<svg xmlns="http://www.w3.org/2000/svg" xmlns:xlink="http://www.w3.org/1999/xlink" width="500" zoomAndPan="magnify" viewBox="0 0 375 374.999991" height="500" preserveAspectRatio="xMidYMid meet" version="1.0"><defs><g/><clipPath id="738d8edd8d"><path d="M 170 93.589844 L 245.5625 93.589844 L 245.5625 170 L 170 170 Z M 170 93.589844 " clip-rule="nonzero"/></clipPath><clipPath id="350f541988"><path d="M 129.3125 134 L 205 134 L 205 209.839844 L 129.3125 209.839844 Z M 129.3125 134 " clip-rule="nonzero"/></clipPath></defs><rect x="-37.5" width="450" fill="#ffffff" y="-37.499999" height="449.999989" fill-opacity="1"/><rect x="-37.5" width="450" fill="#ffffff" y="-37.499999" height="449.999989" fill-opacity="1"/><g fill="#3c4937" fill-opacity="0.4"><g transform="translate(73.797487, 268.842292)"><g><path d="M 37.84375 -26.46875 C 40.5 -23.320312 41.828125 -19.796875 41.828125 -15.890625 C 41.734375 -11.398438 40.191406 -7.640625 37.203125 -4.609375 C 34.222656 -1.578125 30.597656 -0.0625 26.328125 -0.0625 L 8.625 -0.0625 C 5.476562 -0.0625 3.632812 -0.914062 3.09375 -2.625 C 2.820312 -3.382812 2.6875 -4.550781 2.6875 -6.125 L 2.6875 -43.5 C 2.6875 -44.582031 2.71875 -45.367188 2.78125 -45.859375 C 2.851562 -46.359375 3.070312 -46.941406 3.4375 -47.609375 C 4.0625 -48.828125 5.8125 -49.4375 8.6875 -49.4375 L 25.65625 -49.4375 C 29.789062 -49.4375 33.25 -48 36.03125 -45.125 C 38.945312 -42.207031 40.40625 -38.703125 40.40625 -34.609375 C 40.40625 -31.648438 39.550781 -28.9375 37.84375 -26.46875 Z M 29.90625 -16.5625 C 29.90625 -17.644531 29.78125 -18.5 29.53125 -19.125 C 29.28125 -19.75 28.863281 -20.195312 28.28125 -20.46875 C 27.382812 -20.832031 26.128906 -21.015625 24.515625 -21.015625 C 22.898438 -21.015625 21.6875 -21.328125 20.875 -21.953125 C 20.070312 -22.578125 19.671875 -23.863281 19.671875 -25.8125 C 19.671875 -27.769531 20.082031 -29.0625 20.90625 -29.6875 C 21.738281 -30.320312 23.117188 -30.640625 25.046875 -30.640625 C 26.847656 -30.640625 27.925781 -31.113281 28.28125 -32.0625 C 28.414062 -32.550781 28.484375 -33.351562 28.484375 -34.46875 C 28.484375 -35.59375 28.113281 -36.378906 27.375 -36.828125 C 26.632812 -37.285156 25.523438 -37.515625 24.046875 -37.515625 L 14.609375 -37.515625 L 14.609375 -11.984375 L 25.65625 -11.984375 C 28.488281 -11.984375 29.90625 -13.507812 29.90625 -16.5625 Z M 29.90625 -16.5625 "/></g></g></g><g fill="#3c4937" fill-opacity="1"><g transform="translate(70.820822, 265.865628)"><g><path d="M 37.84375 -26.46875 C 40.5 -23.320312 41.828125 -19.796875 41.828125 -15.890625 C 41.734375 -11.398438 40.191406 -7.640625 37.203125 -4.609375 C 34.222656 -1.578125 30.597656 -0.0625 26.328125 -0.0625 L 8.625 -0.0625 C 5.476562 -0.0625 3.632812 -0.914062 3.09375 -2.625 C 2.820312 -3.382812 2.6875 -4.550781 2.6875 -6.125 L 2.6875 -43.5 C 2.6875 -44.582031 2.71875 -45.367188 2.78125 -45.859375 C 2.851562 -46.359375 3.070312 -46.941406 3.4375 -47.609375 C 4.0625 -48.828125 5.8125 -49.4375 8.6875 -49.4375 L 25.65625 -49.4375 C 29.789062 -49.4375 33.25 -48 36.03125 -45.125 C 38.945312 -42.207031 40.40625 -38.703125 40.40625 -34.609375 C 40.40625 -31.648438 39.550781 -28.9375 37.84375 -26.46875 Z M 29.90625 -16.5625 C 29.90625 -17.644531 29.78125 -18.5 29.53125 -19.125 C 29.28125 -19.75 28.863281 -20.195312 28.28125 -20.46875 C 27.382812 -20.832031 26.128906 -21.015625 24.515625 -21.015625 C 22.898438 -21.015625 21.6875 -21.328125 20.875 -21.953125 C 20.070312 -22.578125 19.671875 -23.863281 19.671875 -25.8125 C 19.671875 -27.769531 20.082031 -29.0625 20.90625 -29.6875 C 21.738281 -30.320312 23.117188 -30.640625 25.046875 -30.640625 C 26.847656 -30.640625 27.925781 -31.113281 28.28125 -32.0625 C 28.414062 -32.550781 28.484375 -33.351562 28.484375 -34.46875 C 28.484375 -35.59375 28.113281 -36.378906 27.375 -36.828125 C 26.632812 -37.285156 25.523438 -37.515625 24.046875 -37.515625 L 14.609375 -37.515625 L 14.609375 -11.984375 L 25.65625 -11.984375 C 28.488281 -11.984375 29.90625 -13.507812 29.90625 -16.5625 Z M 29.90625 -16.5625 "/></g></g></g><g fill="#3c4937" fill-opacity="0.4"><g transform="translate(110.299233, 268.842292)"><g><path d="M 20.34375 -50.109375 C 25.863281 -50.109375 30.21875 -48.535156 33.40625 -45.390625 C 36.59375 -42.242188 38.1875 -38.707031 38.1875 -34.78125 C 38.1875 -30.851562 36.4375 -28.015625 32.9375 -26.265625 L 32.9375 -25.796875 C 33.382812 -25.566406 34.046875 -25.082031 34.921875 -24.34375 C 35.796875 -23.601562 36.5 -22.875 37.03125 -22.15625 C 38.519531 -20.269531 39.265625 -18.113281 39.265625 -15.6875 C 39.265625 -10.882812 37.46875 -6.921875 33.875 -3.796875 C 30.28125 -0.679688 25.769531 0.875 20.34375 0.875 C 14.945312 0.875 10.457031 -0.695312 6.875 -3.84375 C 5.519531 -5.050781 4.328125 -6.644531 3.296875 -8.625 C 2.941406 -9.34375 2.695312 -9.925781 2.5625 -10.375 L 2.421875 -11.046875 C 1.929688 -12.523438 1.6875 -13.738281 1.6875 -14.6875 C 1.6875 -17.289062 3.882812 -18.59375 8.28125 -18.59375 C 10.082031 -18.59375 11.273438 -18.363281 11.859375 -17.90625 C 12.617188 -17.320312 13.289062 -16.15625 13.875 -14.40625 C 14.320312 -12.96875 15.554688 -11.890625 17.578125 -11.171875 C 18.429688 -10.910156 19.375 -10.78125 20.40625 -10.78125 C 22.78125 -10.78125 24.53125 -11.257812 25.65625 -12.21875 C 26.78125 -13.1875 27.34375 -14.273438 27.34375 -15.484375 C 27.34375 -16.703125 26.789062 -17.769531 25.6875 -18.6875 C 24.59375 -19.601562 23.289062 -20.0625 21.78125 -20.0625 C 20.28125 -20.0625 19.257812 -20.109375 18.71875 -20.203125 C 18.175781 -20.296875 17.59375 -20.519531 16.96875 -20.875 C 15.757812 -21.457031 15.15625 -23.1875 15.15625 -26.0625 C 15.15625 -29.207031 15.984375 -31.070312 17.640625 -31.65625 C 18.398438 -31.875 19.566406 -31.984375 21.140625 -31.984375 C 24.554688 -31.984375 26.265625 -32.859375 26.265625 -34.609375 C 26.265625 -35.554688 25.8125 -36.457031 24.90625 -37.3125 C 24.007812 -38.164062 22.765625 -38.59375 21.171875 -38.59375 C 19.578125 -38.59375 18.304688 -38.320312 17.359375 -37.78125 C 16.421875 -37.238281 15.84375 -36.695312 15.625 -36.15625 L 15.21875 -35.359375 C 14.1875 -33.109375 12.707031 -31.984375 10.78125 -31.984375 C 9.65625 -31.984375 8.421875 -32.390625 7.078125 -33.203125 C 4.828125 -34.503906 3.703125 -36.007812 3.703125 -37.71875 C 3.703125 -38.4375 4.21875 -39.960938 5.25 -42.296875 C 5.425781 -42.691406 5.921875 -43.394531 6.734375 -44.40625 C 7.546875 -45.414062 8.476562 -46.300781 9.53125 -47.0625 C 10.582031 -47.832031 12.0625 -48.53125 13.96875 -49.15625 C 15.875 -49.789062 18 -50.109375 20.34375 -50.109375 Z M 20.34375 -50.109375 "/></g></g></g><g fill="#5ce1e6" fill-opacity="1"><g transform="translate(107.322569, 265.865628)"><g><path d="M 20.34375 -50.109375 C 25.863281 -50.109375 30.21875 -48.535156 33.40625 -45.390625 C 36.59375 -42.242188 38.1875 -38.707031 38.1875 -34.78125 C 38.1875 -30.851562 36.4375 -28.015625 32.9375 -26.265625 L 32.9375 -25.796875 C 33.382812 -25.566406 34.046875 -25.082031 34.921875 -24.34375 C 35.796875 -23.601562 36.5 -22.875 37.03125 -22.15625 C 38.519531 -20.269531 39.265625 -18.113281 39.265625 -15.6875 C 39.265625 -10.882812 37.46875 -6.921875 33.875 -3.796875 C 30.28125 -0.679688 25.769531 0.875 20.34375 0.875 C 14.945312 0.875 10.457031 -0.695312 6.875 -3.84375 C 5.519531 -5.050781 4.328125 -6.644531 3.296875 -8.625 C 2.941406 -9.34375 2.695312 -9.925781 2.5625 -10.375 L 2.421875 -11.046875 C 1.929688 -12.523438 1.6875 -13.738281 1.6875 -14.6875 C 1.6875 -17.289062 3.882812 -18.59375 8.28125 -18.59375 C 10.082031 -18.59375 11.273438 -18.363281 11.859375 -17.90625 C 12.617188 -17.320312 13.289062 -16.15625 13.875 -14.40625 C 14.320312 -12.96875 15.554688 -11.890625 17.578125 -11.171875 C 18.429688 -10.910156 19.375 -10.78125 20.40625 -10.78125 C 22.78125 -10.78125 24.53125 -11.257812 25.65625 -12.21875 C 26.78125 -13.1875 27.34375 -14.273438 27.34375 -15.484375 C 27.34375 -16.703125 26.789062 -17.769531 25.6875 -18.6875 C 24.59375 -19.601562 23.289062 -20.0625 21.78125 -20.0625 C 20.28125 -20.0625 19.257812 -20.109375 18.71875 -20.203125 C 18.175781 -20.296875 17.59375 -20.519531 16.96875 -20.875 C 15.757812 -21.457031 15.15625 -23.1875 15.15625 -26.0625 C 15.15625 -29.207031 15.984375 -31.070312 17.640625 -31.65625 C 18.398438 -31.875 19.566406 -31.984375 21.140625 -31.984375 C 24.554688 -31.984375 26.265625 -32.859375 26.265625 -34.609375 C 26.265625 -35.554688 25.8125 -36.457031 24.90625 -37.3125 C 24.007812 -38.164062 22.765625 -38.59375 21.171875 -38.59375 C 19.578125 -38.59375 18.304688 -38.320312 17.359375 -37.78125 C 16.421875 -37.238281 15.84375 -36.695312 15.625 -36.15625 L 15.21875 -35.359375 C 14.1875 -33.109375 12.707031 -31.984375 10.78125 -31.984375 C 9.65625 -31.984375 8.421875 -32.390625 7.078125 -33.203125 C 4.828125 -34.503906 3.703125 -36.007812 3.703125 -37.71875 C 3.703125 -38.4375 4.21875 -39.960938 5.25 -42.296875 C 5.425781 -42.691406 5.921875 -43.394531 6.734375 -44.40625 C 7.546875 -45.414062 8.476562 -46.300781 9.53125 -47.0625 C 10.582031 -47.832031 12.0625 -48.53125 13.96875 -49.15625 C 15.875 -49.789062 18 -50.109375 20.34375 -50.109375 Z M 20.34375 -50.109375 "/></g></g></g><g fill="#3c4937" fill-opacity="0.4"><g transform="translate(144.243451, 268.842292)"><g><path d="M 5.921875 -49.4375 L 43.375 -49.4375 C 44.8125 -49.4375 45.863281 -49.265625 46.53125 -48.921875 C 47.207031 -48.585938 47.65625 -48.0625 47.875 -47.34375 C 48.101562 -46.625 48.21875 -45.679688 48.21875 -44.515625 C 48.21875 -43.347656 48.101562 -42.414062 47.875 -41.71875 C 47.65625 -41.019531 47.273438 -40.535156 46.734375 -40.265625 C 45.929688 -39.867188 44.785156 -39.671875 43.296875 -39.671875 L 30.4375 -39.671875 L 30.4375 -5.796875 C 30.4375 -4.765625 30.398438 -4 30.328125 -3.5 C 30.265625 -3.007812 30.066406 -2.4375 29.734375 -1.78125 C 29.398438 -1.132812 28.804688 -0.675781 27.953125 -0.40625 C 27.097656 -0.132812 25.972656 0 24.578125 0 C 23.191406 0 22.082031 -0.132812 21.25 -0.40625 C 20.414062 -0.675781 19.828125 -1.132812 19.484375 -1.78125 C 19.148438 -2.4375 18.945312 -3.019531 18.875 -3.53125 C 18.8125 -4.050781 18.78125 -4.828125 18.78125 -5.859375 L 18.78125 -39.671875 L 5.859375 -39.671875 C 4.421875 -39.671875 3.363281 -39.835938 2.6875 -40.171875 C 2.019531 -40.503906 1.570312 -41.03125 1.34375 -41.75 C 1.125 -42.46875 1.015625 -43.410156 1.015625 -44.578125 C 1.015625 -45.742188 1.125 -46.675781 1.34375 -47.375 C 1.570312 -48.070312 1.953125 -48.554688 2.484375 -48.828125 C 3.296875 -49.234375 4.441406 -49.4375 5.921875 -49.4375 Z M 5.921875 -49.4375 "/></g></g></g><g fill="#3c4937" fill-opacity="0.4"><g transform="translate(186.463803, 268.842292)"><g><path d="M 5.921875 -49.4375 L 43.375 -49.4375 C 44.8125 -49.4375 45.863281 -49.265625 46.53125 -48.921875 C 47.207031 -48.585938 47.65625 -48.0625 47.875 -47.34375 C 48.101562 -46.625 48.21875 -45.679688 48.21875 -44.515625 C 48.21875 -43.347656 48.101562 -42.414062 47.875 -41.71875 C 47.65625 -41.019531 47.273438 -40.535156 46.734375 -40.265625 C 45.929688 -39.867188 44.785156 -39.671875 43.296875 -39.671875 L 30.4375 -39.671875 L 30.4375 -5.796875 C 30.4375 -4.765625 30.398438 -4 30.328125 -3.5 C 30.265625 -3.007812 30.066406 -2.4375 29.734375 -1.78125 C 29.398438 -1.132812 28.804688 -0.675781 27.953125 -0.40625 C 27.097656 -0.132812 25.972656 0 24.578125 0 C 23.191406 0 22.082031 -0.132812 21.25 -0.40625 C 20.414062 -0.675781 19.828125 -1.132812 19.484375 -1.78125 C 19.148438 -2.4375 18.945312 -3.019531 18.875 -3.53125 C 18.8125 -4.050781 18.78125 -4.828125 18.78125 -5.859375 L 18.78125 -39.671875 L 5.859375 -39.671875 C 4.421875 -39.671875 3.363281 -39.835938 2.6875 -40.171875 C 2.019531 -40.503906 1.570312 -41.03125 1.34375 -41.75 C 1.125 -42.46875 1.015625 -43.410156 1.015625 -44.578125 C 1.015625 -45.742188 1.125 -46.675781 1.34375 -47.375 C 1.570312 -48.070312 1.953125 -48.554688 2.484375 -48.828125 C 3.296875 -49.234375 4.441406 -49.4375 5.921875 -49.4375 Z M 5.921875 -49.4375 "/></g></g></g><g fill="#3c4937" fill-opacity="0.4"><g transform="translate(228.684154, 268.842292)"><g><path d="M 14.609375 -11.921875 L 35.359375 -11.921875 C 36.390625 -11.921875 37.160156 -11.882812 37.671875 -11.8125 C 38.191406 -11.75 38.789062 -11.535156 39.46875 -11.171875 C 40.675781 -10.546875 41.28125 -8.796875 41.28125 -5.921875 C 41.28125 -2.785156 40.453125 -0.945312 38.796875 -0.40625 C 38.023438 -0.132812 36.851562 0 35.28125 0 L 8.625 0 C 5.476562 0 3.632812 -0.851562 3.09375 -2.5625 C 2.820312 -3.28125 2.6875 -4.425781 2.6875 -6 L 2.6875 -43.4375 C 2.6875 -45.726562 3.113281 -47.285156 3.96875 -48.109375 C 4.820312 -48.941406 6.441406 -49.359375 8.828125 -49.359375 L 35.359375 -49.359375 C 36.390625 -49.359375 37.160156 -49.320312 37.671875 -49.25 C 38.191406 -49.1875 38.789062 -48.976562 39.46875 -48.625 C 40.675781 -47.988281 41.28125 -46.238281 41.28125 -43.375 C 41.28125 -40.226562 40.453125 -38.382812 38.796875 -37.84375 C 38.023438 -37.570312 36.851562 -37.4375 35.28125 -37.4375 L 14.609375 -37.4375 L 14.609375 -30.640625 L 27.953125 -30.640625 C 28.984375 -30.640625 29.753906 -30.601562 30.265625 -30.53125 C 30.785156 -30.46875 31.382812 -30.257812 32.0625 -29.90625 C 33.269531 -29.269531 33.875 -27.515625 33.875 -24.640625 C 33.875 -21.503906 33.019531 -19.664062 31.3125 -19.125 C 30.550781 -18.851562 29.382812 -18.71875 27.8125 -18.71875 L 14.609375 -18.71875 Z M 14.609375 -11.921875 "/></g></g></g><g fill="#3c4937" fill-opacity="0.4"><g transform="translate(264.641936, 268.842292)"><g><path d="M 40.46875 -8.34375 C 41.144531 -6.726562 41.484375 -5.5625 41.484375 -4.84375 C 41.484375 -3.144531 40.09375 -1.707031 37.3125 -0.53125 C 35.875 0.09375 34.71875 0.40625 33.84375 0.40625 C 32.96875 0.40625 32.25 0.191406 31.6875 -0.234375 C 31.125 -0.660156 30.707031 -1.097656 30.4375 -1.546875 C 29.988281 -2.398438 28.238281 -6.460938 25.1875 -13.734375 L 23.09375 -13.609375 L 14.609375 -13.609375 L 14.609375 -6 C 14.609375 -4.957031 14.570312 -4.175781 14.5 -3.65625 C 14.4375 -3.144531 14.226562 -2.554688 13.875 -1.890625 C 13.25 -0.671875 11.5 -0.0625 8.625 -0.0625 C 5.476562 -0.0625 3.632812 -0.894531 3.09375 -2.5625 C 2.820312 -3.320312 2.6875 -4.488281 2.6875 -6.0625 L 2.6875 -43.4375 C 2.6875 -44.46875 2.71875 -45.238281 2.78125 -45.75 C 2.851562 -46.269531 3.070312 -46.867188 3.4375 -47.546875 C 4.0625 -48.753906 5.8125 -49.359375 8.6875 -49.359375 L 23.234375 -49.359375 C 27.179688 -49.359375 31.019531 -47.921875 34.75 -45.046875 C 36.539062 -43.660156 38.019531 -41.773438 39.1875 -39.390625 C 40.351562 -37.015625 40.9375 -34.367188 40.9375 -31.453125 C 40.9375 -26.378906 39.253906 -22.203125 35.890625 -18.921875 C 36.878906 -16.546875 38.40625 -13.019531 40.46875 -8.34375 Z M 14.609375 -25.515625 L 23.234375 -25.515625 C 24.535156 -25.515625 25.835938 -26.007812 27.140625 -27 C 28.441406 -27.988281 29.09375 -29.46875 29.09375 -31.4375 C 29.09375 -33.414062 28.441406 -34.910156 27.140625 -35.921875 C 25.835938 -36.929688 24.488281 -37.4375 23.09375 -37.4375 L 14.609375 -37.4375 Z M 14.609375 -25.515625 "/></g></g></g><g fill="#3c4937" fill-opacity="1"><g transform="translate(141.266787, 265.865628)"><g><path d="M 5.921875 -49.4375 L 43.375 -49.4375 C 44.8125 -49.4375 45.863281 -49.265625 46.53125 -48.921875 C 47.207031 -48.585938 47.65625 -48.0625 47.875 -47.34375 C 48.101562 -46.625 48.21875 -45.679688 48.21875 -44.515625 C 48.21875 -43.347656 48.101562 -42.414062 47.875 -41.71875 C 47.65625 -41.019531 47.273438 -40.535156 46.734375 -40.265625 C 45.929688 -39.867188 44.785156 -39.671875 43.296875 -39.671875 L 30.4375 -39.671875 L 30.4375 -5.796875 C 30.4375 -4.765625 30.398438 -4 30.328125 -3.5 C 30.265625 -3.007812 30.066406 -2.4375 29.734375 -1.78125 C 29.398438 -1.132812 28.804688 -0.675781 27.953125 -0.40625 C 27.097656 -0.132812 25.972656 0 24.578125 0 C 23.191406 0 22.082031 -0.132812 21.25 -0.40625 C 20.414062 -0.675781 19.828125 -1.132812 19.484375 -1.78125 C 19.148438 -2.4375 18.945312 -3.019531 18.875 -3.53125 C 18.8125 -4.050781 18.78125 -4.828125 18.78125 -5.859375 L 18.78125 -39.671875 L 5.859375 -39.671875 C 4.421875 -39.671875 3.363281 -39.835938 2.6875 -40.171875 C 2.019531 -40.503906 1.570312 -41.03125 1.34375 -41.75 C 1.125 -42.46875 1.015625 -43.410156 1.015625 -44.578125 C 1.015625 -45.742188 1.125 -46.675781 1.34375 -47.375 C 1.570312 -48.070312 1.953125 -48.554688 2.484375 -48.828125 C 3.296875 -49.234375 4.441406 -49.4375 5.921875 -49.4375 Z M 5.921875 -49.4375 "/></g></g></g><g fill="#3c4937" fill-opacity="1"><g transform="translate(183.487138, 265.865628)"><g><path d="M 5.921875 -49.4375 L 43.375 -49.4375 C 44.8125 -49.4375 45.863281 -49.265625 46.53125 -48.921875 C 47.207031 -48.585938 47.65625 -48.0625 47.875 -47.34375 C 48.101562 -46.625 48.21875 -45.679688 48.21875 -44.515625 C 48.21875 -43.347656 48.101562 -42.414062 47.875 -41.71875 C 47.65625 -41.019531 47.273438 -40.535156 46.734375 -40.265625 C 45.929688 -39.867188 44.785156 -39.671875 43.296875 -39.671875 L 30.4375 -39.671875 L 30.4375 -5.796875 C 30.4375 -4.765625 30.398438 -4 30.328125 -3.5 C 30.265625 -3.007812 30.066406 -2.4375 29.734375 -1.78125 C 29.398438 -1.132812 28.804688 -0.675781 27.953125 -0.40625 C 27.097656 -0.132812 25.972656 0 24.578125 0 C 23.191406 0 22.082031 -0.132812 21.25 -0.40625 C 20.414062 -0.675781 19.828125 -1.132812 19.484375 -1.78125 C 19.148438 -2.4375 18.945312 -3.019531 18.875 -3.53125 C 18.8125 -4.050781 18.78125 -4.828125 18.78125 -5.859375 L 18.78125 -39.671875 L 5.859375 -39.671875 C 4.421875 -39.671875 3.363281 -39.835938 2.6875 -40.171875 C 2.019531 -40.503906 1.570312 -41.03125 1.34375 -41.75 C 1.125 -42.46875 1.015625 -43.410156 1.015625 -44.578125 C 1.015625 -45.742188 1.125 -46.675781 1.34375 -47.375 C 1.570312 -48.070312 1.953125 -48.554688 2.484375 -48.828125 C 3.296875 -49.234375 4.441406 -49.4375 5.921875 -49.4375 Z M 5.921875 -49.4375 "/></g></g></g><g fill="#3c4937" fill-opacity="1"><g transform="translate(225.70749, 265.865628)"><g><path d="M 14.609375 -11.921875 L 35.359375 -11.921875 C 36.390625 -11.921875 37.160156 -11.882812 37.671875 -11.8125 C 38.191406 -11.75 38.789062 -11.535156 39.46875 -11.171875 C 40.675781 -10.546875 41.28125 -8.796875 41.28125 -5.921875 C 41.28125 -2.785156 40.453125 -0.945312 38.796875 -0.40625 C 38.023438 -0.132812 36.851562 0 35.28125 0 L 8.625 0 C 5.476562 0 3.632812 -0.851562 3.09375 -2.5625 C 2.820312 -3.28125 2.6875 -4.425781 2.6875 -6 L 2.6875 -43.4375 C 2.6875 -45.726562 3.113281 -47.285156 3.96875 -48.109375 C 4.820312 -48.941406 6.441406 -49.359375 8.828125 -49.359375 L 35.359375 -49.359375 C 36.390625 -49.359375 37.160156 -49.320312 37.671875 -49.25 C 38.191406 -49.1875 38.789062 -48.976562 39.46875 -48.625 C 40.675781 -47.988281 41.28125 -46.238281 41.28125 -43.375 C 41.28125 -40.226562 40.453125 -38.382812 38.796875 -37.84375 C 38.023438 -37.570312 36.851562 -37.4375 35.28125 -37.4375 L 14.609375 -37.4375 L 14.609375 -30.640625 L 27.953125 -30.640625 C 28.984375 -30.640625 29.753906 -30.601562 30.265625 -30.53125 C 30.785156 -30.46875 31.382812 -30.257812 32.0625 -29.90625 C 33.269531 -29.269531 33.875 -27.515625 33.875 -24.640625 C 33.875 -21.503906 33.019531 -19.664062 31.3125 -19.125 C 30.550781 -18.851562 29.382812 -18.71875 27.8125 -18.71875 L 14.609375 -18.71875 Z M 14.609375 -11.921875 "/></g></g></g><g fill="#3c4937" fill-opacity="1"><g transform="translate(261.665271, 265.865628)"><g><path d="M 40.46875 -8.34375 C 41.144531 -6.726562 41.484375 -5.5625 41.484375 -4.84375 C 41.484375 -3.144531 40.09375 -1.707031 37.3125 -0.53125 C 35.875 0.09375 34.71875 0.40625 33.84375 0.40625 C 32.96875 0.40625 32.25 0.191406 31.6875 -0.234375 C 31.125 -0.660156 30.707031 -1.097656 30.4375 -1.546875 C 29.988281 -2.398438 28.238281 -6.460938 25.1875 -13.734375 L 23.09375 -13.609375 L 14.609375 -13.609375 L 14.609375 -6 C 14.609375 -4.957031 14.570312 -4.175781 14.5 -3.65625 C 14.4375 -3.144531 14.226562 -2.554688 13.875 -1.890625 C 13.25 -0.671875 11.5 -0.0625 8.625 -0.0625 C 5.476562 -0.0625 3.632812 -0.894531 3.09375 -2.5625 C 2.820312 -3.320312 2.6875 -4.488281 2.6875 -6.0625 L 2.6875 -43.4375 C 2.6875 -44.46875 2.71875 -45.238281 2.78125 -45.75 C 2.851562 -46.269531 3.070312 -46.867188 3.4375 -47.546875 C 4.0625 -48.753906 5.8125 -49.359375 8.6875 -49.359375 L 23.234375 -49.359375 C 27.179688 -49.359375 31.019531 -47.921875 34.75 -45.046875 C 36.539062 -43.660156 38.019531 -41.773438 39.1875 -39.390625 C 40.351562 -37.015625 40.9375 -34.367188 40.9375 -31.453125 C 40.9375 -26.378906 39.253906 -22.203125 35.890625 -18.921875 C 36.878906 -16.546875 38.40625 -13.019531 40.46875 -8.34375 Z M 14.609375 -25.515625 L 23.234375 -25.515625 C 24.535156 -25.515625 25.835938 -26.007812 27.140625 -27 C 28.441406 -27.988281 29.09375 -29.46875 29.09375 -31.4375 C 29.09375 -33.414062 28.441406 -34.910156 27.140625 -35.921875 C 25.835938 -36.929688 24.488281 -37.4375 23.09375 -37.4375 L 14.609375 -37.4375 Z M 14.609375 -25.515625 "/></g></g></g><g clip-path="url(#738d8edd8d)"><path fill="#5ce1e6" d="M 245.5625 151.828125 C 245.5625 161.484375 237.765625 169.300781 228.128906 169.300781 L 192.429688 169.300781 C 180.089844 169.300781 170.070312 159.253906 170.070312 146.886719 L 170.070312 111.097656 C 170.070312 101.441406 177.867188 93.625 187.5 93.625 C 197.132812 93.625 204.933594 101.441406 204.933594 111.097656 L 204.933594 134.351562 L 228.128906 134.351562 C 237.765625 134.351562 245.5625 142.203125 245.5625 151.828125 Z M 245.5625 151.828125 " fill-opacity="1" fill-rule="nonzero"/></g><g clip-path="url(#350f541988)"><path fill="#587dff" d="M 129.3125 151.601562 C 129.3125 141.941406 137.109375 134.128906 146.742188 134.128906 L 182.441406 134.128906 C 194.78125 134.128906 204.804688 144.171875 204.804688 156.542969 L 204.804688 192.328125 C 204.804688 201.984375 197.003906 209.800781 187.371094 209.800781 C 177.738281 209.800781 169.941406 201.984375 169.941406 192.328125 L 169.941406 169.074219 L 146.742188 169.074219 C 137.109375 169.074219 129.3125 161.257812 129.3125 151.601562 Z M 129.3125 151.601562 " fill-opacity="1" fill-rule="nonzero"/></g><path fill="#2720ff" d="M 204.804688 156.542969 L 204.804688 169.300781 L 192.429688 169.300781 C 180.089844 169.300781 170.070312 159.253906 170.070312 146.886719 L 170.070312 134.128906 L 182.441406 134.128906 C 194.78125 134.128906 204.804688 144.171875 204.804688 156.542969 Z M 204.804688 156.542969 " fill-opacity="1" fill-rule="nonzero"/></svg>