<svg xmlns="http://www.w3.org/2000/svg" xmlns:xlink="http://www.w3.org/1999/xlink" width="1366" zoomAndPan="magnify" viewBox="0 0 1024.5 576" height="768" preserveAspectRatio="xMidYMid meet" version="1.0"><defs><filter x="0%" y="0%" width="100%" height="100%" id="d034564830"><feColorMatrix values="0 0 0 0 1 0 0 0 0 1 0 0 0 0 1 0 0 0 1 0" color-interpolation-filters="sRGB"/></filter><mask id="b2a352eed0"><g filter="url(#d034564830)"><rect x="-102.45" width="1229.4" fill="#000000" y="-57.6" height="691.2" fill-opacity="0.05"/></g></mask><clipPath id="87da97c28f"><rect x="0" width="41" y="0" height="29"/></clipPath><clipPath id="a9e8a41e91"><path d="M 418 343.867188 L 512.496094 343.867188 L 512.496094 439 L 418 439 Z M 418 343.867188 " clip-rule="nonzero"/></clipPath><clipPath id="55211e7d07"><path d="M 366.996094 394 L 462 394 L 462 488.617188 L 366.996094 488.617188 Z M 366.996094 394 " clip-rule="nonzero"/></clipPath></defs><path fill="#81a1e7" d="M 469.621094 503.175781 L 473.921875 551.15625 C 474.84375 561.460938 482.523438 569.863281 492.699219 571.738281 C 507.382812 574.449219 529.164062 575.984375 549.085938 567.699219 C 558.109375 563.949219 563.867188 554.988281 563.371094 545.226562 L 560.503906 488.214844 Z M 469.621094 503.175781 " fill-opacity="1" fill-rule="nonzero"/><path fill="#001230" d="M 469.621094 503.175781 C 469.621094 503.175781 499.328125 509.632812 533.839844 503.175781 C 533.839844 503.175781 504.910156 516.113281 470.335938 511.125 Z M 469.621094 503.175781 " fill-opacity="1" fill-rule="nonzero"/><path fill="#81a1e7" d="M 562.515625 490.597656 C 562.515625 490.597656 592.4375 501.460938 609.664062 488.078125 C 617.636719 481.886719 616.34375 469.246094 607 465.40625 C 602 463.347656 595.140625 462.789062 586.007812 466.304688 C 586.007812 466.304688 578.621094 482.164062 562.515625 490.597656 Z M 562.515625 490.597656 " fill-opacity="1" fill-rule="nonzero"/><path fill="#001230" d="M 597.335938 463.792969 C 597.335938 463.792969 586.046875 478.492188 573.40625 486.011719 C 573.40625 486.011719 594.742188 479.769531 604.273438 464.5 C 604.273438 464.5 601.554688 463.546875 597.335938 463.792969 Z M 597.335938 463.792969 " fill-opacity="1" fill-rule="nonzero"/><path fill="#81a1e7" d="M 416.515625 301.113281 C 416.515625 301.113281 377.578125 275.246094 352.378906 253.574219 C 344.777344 247.039062 333.527344 246.855469 325.898438 253.351562 C 320.59375 257.867188 314.726562 263.902344 309.816406 271.507812 C 304.6875 279.449219 305.710938 289.890625 312.269531 296.710938 C 325.148438 310.105469 349.644531 332.605469 377.855469 343.496094 Z M 416.515625 301.113281 " fill-opacity="1" fill-rule="nonzero"/><path fill="#001230" d="M 371.410156 340.792969 C 371.410156 340.792969 381.738281 322.613281 388.527344 315.824219 C 388.527344 315.824219 376.816406 321.976562 367.039062 338.703125 C 367.039062 338.710938 370.433594 340.300781 371.410156 340.792969 Z M 371.410156 340.792969 " fill-opacity="1" fill-rule="nonzero"/><path fill="#81a1e7" d="M 372.230469 369.375 C 372.230469 369.375 339.132812 378.796875 307.128906 386.316406 C 296.371094 388.84375 288.574219 398.257812 288.261719 409.300781 C 287.984375 419.484375 289.074219 432.898438 294.105469 447.589844 C 298.167969 459.433594 310.6875 466.160156 322.867188 463.234375 C 340.683594 458.964844 367.394531 452.28125 388.507812 445.847656 Z M 372.230469 369.375 " fill-opacity="1" fill-rule="nonzero"/><path fill="#001230" d="M 371.777344 450.707031 C 371.777344 450.707031 357.933594 433.683594 355.707031 399.894531 C 355.707031 399.894531 348.425781 425.78125 364.667969 452.644531 Z M 371.777344 450.707031 " fill-opacity="1" fill-rule="nonzero"/><path fill="#81a1e7" d="M 423.417969 280.007812 C 423.417969 280.007812 387.945312 307.960938 367.003906 348.855469 C 336.835938 407.773438 369.253906 479.429688 433.296875 496.148438 C 454.828125 501.769531 481.539062 506.253906 511.144531 505.816406 C 564.40625 505.019531 610.148438 467.144531 619.714844 414.738281 C 625.578125 382.589844 622.089844 342.863281 594.535156 299.382812 Z M 423.417969 280.007812 " fill-opacity="1" fill-rule="nonzero"/><path fill="#ffd2e1" d="M 521.484375 435.035156 C 518.996094 465.929688 498.875 492.960938 469.621094 503.175781 C 469.527344 503.207031 469.4375 503.238281 469.34375 503.273438 C 456.226562 501.507812 444.109375 498.964844 433.296875 496.140625 C 411.898438 490.550781 394.027344 478.832031 380.847656 463.503906 C 349.523438 427.078125 355.503906 371.257812 395.019531 343.933594 C 400.417969 340.207031 406.40625 337.042969 413.035156 334.664062 C 454.054688 319.980469 499.902344 341.28125 515.199219 382.078125 C 520.378906 395.875 523.25 413.269531 521.484375 435.035156 Z M 521.484375 435.035156 " fill-opacity="1" fill-rule="nonzero"/><path fill="#001230" d="M 428.457031 428.722656 L 436.152344 426.332031 C 438.273438 425.671875 439.46875 423.414062 438.808594 421.289062 C 438.148438 419.167969 435.890625 417.972656 433.769531 418.632812 L 426.074219 421.027344 L 423.679688 413.332031 C 423.019531 411.207031 420.761719 410.015625 418.640625 410.675781 C 416.515625 411.335938 415.324219 413.59375 415.984375 415.714844 L 418.378906 423.414062 L 410.683594 425.804688 C 408.558594 426.464844 407.367188 428.722656 408.027344 430.847656 C 408.6875 432.96875 410.945312 434.160156 413.066406 433.5 L 420.761719 431.109375 L 423.15625 438.804688 C 423.816406 440.925781 426.074219 442.121094 428.195312 441.460938 C 430.316406 440.800781 431.511719 438.542969 430.851562 436.417969 Z M 428.457031 428.722656 " fill-opacity="1" fill-rule="nonzero"/><path fill="#81a1e7" d="M 597.558594 322.183594 C 597.558594 322.183594 647.003906 311.417969 680.585938 295.207031 C 690.949219 290.207031 703.464844 293.691406 709.464844 303.515625 C 714.378906 311.5625 719.347656 322.199219 721.796875 334.917969 C 723.65625 344.578125 718.800781 354.308594 710.046875 358.800781 C 690.65625 368.753906 651.839844 385.5625 605.15625 389.066406 Z M 597.558594 322.183594 " fill-opacity="1" fill-rule="nonzero"/><path fill="#001230" d="M 622.128906 387.191406 C 622.128906 387.191406 605.09375 389.203125 592.589844 389.910156 C 592.589844 389.910156 605.195312 393.671875 622.128906 392.929688 C 622.128906 392.929688 622.390625 389.296875 622.128906 387.191406 Z M 622.128906 387.191406 " fill-opacity="1" fill-rule="nonzero"/><path fill="#81a1e7" d="M 636.4375 104.46875 C 636.4375 104.46875 651.671875 0.289062 722.628906 36.953125 C 746.417969 49.246094 761.226562 74.496094 758.378906 101.113281 C 755.574219 127.308594 735.667969 154.457031 662.902344 149.910156 C 662.910156 149.910156 650.921875 123.9375 636.4375 104.46875 Z M 636.4375 104.46875 " fill-opacity="1" fill-rule="nonzero"/><path fill="#ffffff" d="M 669.683594 141.921875 L 662.054688 130.066406 L 656.703125 121.773438 C 656.703125 121.773438 679.257812 70.335938 712.574219 74.925781 C 714.800781 75.234375 716.953125 75.800781 719.003906 76.585938 C 729.308594 80.53125 736.867188 90.15625 738.148438 101.445312 C 740.007812 117.917969 731.042969 140.292969 669.683594 141.921875 Z M 669.683594 141.921875 " fill-opacity="1" fill-rule="nonzero"/><path fill="#ffd2e1" d="M 662.054688 130.066406 L 656.703125 121.773438 C 656.703125 121.773438 679.257812 70.335938 712.574219 74.925781 C 714.800781 75.234375 716.953125 75.800781 719.003906 76.585938 C 721.597656 80.496094 723.296875 85.023438 723.847656 89.863281 C 725.636719 105.714844 717.414062 127.070312 662.054688 130.066406 Z M 662.054688 130.066406 " fill-opacity="1" fill-rule="nonzero"/><path fill="#001230" d="M 638.378906 94.839844 C 638.378906 94.839844 658.039062 115.796875 668.460938 133.105469 C 668.460938 133.105469 666.242188 110.621094 640.921875 85.308594 C 640.921875 85.308594 639.355469 90.507812 638.378906 94.839844 Z M 638.378906 94.839844 " fill-opacity="1" fill-rule="nonzero"/><path fill="#001230" d="M 371.777344 269.050781 C 371.777344 269.050781 420.667969 323.75 531.734375 332.496094 C 531.734375 332.496094 407.84375 352.496094 352.378906 253.582031 C 352.371094 253.582031 368.101562 265.378906 371.777344 269.050781 Z M 371.777344 269.050781 " fill-opacity="1" fill-rule="nonzero"/><path fill="#81a1e7" d="M 432.695312 71.039062 C 432.695312 71.039062 434.023438 19.136719 398.199219 6.703125 C 382.046875 1.101562 364.167969 6.1875 352.378906 18.574219 C 348.59375 22.542969 344.730469 27.496094 341.328125 33.59375 C 324.6875 63.40625 342.027344 100.730469 375.773438 105.921875 C 383.144531 107.058594 391.609375 107.257812 401.300781 106.074219 Z M 432.695312 71.039062 " fill-opacity="1" fill-rule="nonzero"/><path fill="#ffffff" d="M 412.03125 94.09375 L 406.90625 99.800781 C 367.054688 101.367188 355.167969 86.445312 352.132812 73.980469 C 349.53125 63.390625 354.851562 52.171875 364.976562 48.433594 C 365.257812 48.316406 365.542969 48.203125 365.820312 48.117188 C 389.242188 40.5625 407.023438 81.363281 411.125 91.738281 C 411.738281 93.226562 412.03125 94.09375 412.03125 94.09375 Z M 412.03125 94.09375 " fill-opacity="1" fill-rule="nonzero"/><path fill="#ffd2e1" d="M 411.144531 91.738281 C 375.894531 91.707031 365.066406 77.644531 362.148438 65.8125 C 360.652344 59.722656 361.796875 53.402344 364.996094 48.433594 C 365.273438 48.316406 365.558594 48.203125 365.835938 48.117188 C 389.25 40.5625 407.03125 81.363281 411.144531 91.738281 Z M 411.144531 91.738281 " fill-opacity="1" fill-rule="nonzero"/><path fill="#001230" d="M 432.144531 60.703125 C 432.144531 60.703125 409.332031 74.574219 391.15625 95.15625 C 391.15625 95.15625 398.914062 74.011719 431.160156 53.640625 C 431.167969 53.640625 431.980469 58.578125 432.144531 60.703125 Z M 432.144531 60.703125 " fill-opacity="1" fill-rule="nonzero"/><path fill="#81a1e7" d="M 358.648438 143.082031 C 377.460938 106.980469 408.136719 67.394531 456.519531 48.816406 C 494.820312 34.109375 537.480469 36.183594 574.988281 52.824219 C 620.140625 72.859375 686.078125 118.421875 692.589844 214.863281 C 696.269531 269.339844 658.859375 318.390625 605.226562 328.65625 C 581.171875 333.257812 551.105469 335.046875 514.171875 330.945312 C 475.632812 326.660156 438.109375 315.328125 404.402344 296.152344 C 403.765625 295.796875 403.136719 295.429688 402.5 295.066406 C 349.53125 264.335938 330.355469 197.382812 358.648438 143.082031 Z M 358.648438 143.082031 " fill-opacity="1" fill-rule="nonzero"/><path fill="#001230" d="M 607.082031 151.660156 C 607.082031 152.898438 607.027344 154.136719 606.921875 155.371094 C 606.816406 156.605469 606.660156 157.832031 606.449219 159.046875 C 606.238281 160.265625 605.980469 161.464844 605.667969 162.652344 C 605.355469 163.839844 604.992188 165.003906 604.582031 166.152344 C 604.167969 167.296875 603.710938 168.417969 603.203125 169.511719 C 602.695312 170.605469 602.140625 171.667969 601.542969 172.699219 C 600.945312 173.730469 600.308594 174.722656 599.625 175.683594 C 598.941406 176.640625 598.21875 177.558594 597.460938 178.4375 C 596.699219 179.3125 595.902344 180.144531 595.070312 180.929688 C 594.238281 181.71875 593.375 182.457031 592.480469 183.144531 C 591.585938 183.832031 590.664062 184.472656 589.71875 185.054688 C 588.769531 185.640625 587.796875 186.167969 586.804688 186.644531 C 585.808594 187.117188 584.796875 187.535156 583.769531 187.894531 C 582.738281 188.257812 581.695312 188.558594 580.640625 188.800781 C 579.585938 189.039062 578.523438 189.222656 577.453125 189.34375 C 576.382812 189.464844 575.308594 189.527344 574.230469 189.527344 C 573.15625 189.527344 572.082031 189.464844 571.011719 189.34375 C 569.941406 189.222656 568.878906 189.039062 567.824219 188.800781 C 566.769531 188.558594 565.726562 188.257812 564.695312 187.894531 C 563.667969 187.535156 562.65625 187.117188 561.660156 186.644531 C 560.667969 186.167969 559.695312 185.640625 558.746094 185.054688 C 557.800781 184.472656 556.878906 183.832031 555.984375 183.144531 C 555.089844 182.457031 554.226562 181.71875 553.394531 180.929688 C 552.5625 180.144531 551.765625 179.3125 551.003906 178.4375 C 550.246094 177.558594 549.523438 176.640625 548.839844 175.683594 C 548.15625 174.722656 547.515625 173.730469 546.917969 172.699219 C 546.320312 171.667969 545.769531 170.605469 545.261719 169.511719 C 544.753906 168.417969 544.296875 167.296875 543.882812 166.152344 C 543.472656 165.003906 543.109375 163.839844 542.796875 162.652344 C 542.484375 161.464844 542.226562 160.265625 542.015625 159.046875 C 541.804688 157.832031 541.648438 156.605469 541.542969 155.371094 C 541.4375 154.136719 541.382812 152.898438 541.382812 151.660156 C 541.382812 150.417969 541.4375 149.183594 541.542969 147.949219 C 541.648438 146.714844 541.804688 145.488281 542.015625 144.273438 C 542.226562 143.054688 542.484375 141.855469 542.796875 140.667969 C 543.109375 139.480469 543.472656 138.316406 543.882812 137.167969 C 544.296875 136.023438 544.753906 134.902344 545.261719 133.808594 C 545.769531 132.714844 546.320312 131.652344 546.917969 130.621094 C 547.515625 129.589844 548.15625 128.597656 548.839844 127.636719 C 549.523438 126.679688 550.246094 125.761719 551.003906 124.882812 C 551.765625 124.007812 552.5625 123.175781 553.394531 122.386719 C 554.226562 121.601562 555.089844 120.863281 555.984375 120.175781 C 556.878906 119.484375 557.800781 118.847656 558.746094 118.265625 C 559.695312 117.679688 560.667969 117.148438 561.660156 116.675781 C 562.65625 116.199219 563.667969 115.785156 564.695312 115.425781 C 565.726562 115.0625 566.769531 114.761719 567.824219 114.519531 C 568.878906 114.277344 569.941406 114.097656 571.011719 113.976562 C 572.082031 113.855469 573.15625 113.792969 574.230469 113.792969 C 575.308594 113.792969 576.382812 113.855469 577.453125 113.976562 C 578.523438 114.097656 579.585938 114.277344 580.640625 114.519531 C 581.695312 114.761719 582.738281 115.0625 583.769531 115.425781 C 584.796875 115.785156 585.808594 116.199219 586.804688 116.675781 C 587.796875 117.148438 588.769531 117.679688 589.71875 118.265625 C 590.664062 118.847656 591.585938 119.484375 592.480469 120.175781 C 593.375 120.863281 594.238281 121.601562 595.070312 122.386719 C 595.902344 123.175781 596.699219 124.007812 597.460938 124.882812 C 598.21875 125.761719 598.941406 126.679688 599.625 127.636719 C 600.308594 128.597656 600.945312 129.589844 601.542969 130.621094 C 602.140625 131.652344 602.695312 132.714844 603.203125 133.808594 C 603.710938 134.902344 604.167969 136.023438 604.582031 137.167969 C 604.992188 138.316406 605.355469 139.480469 605.667969 140.667969 C 605.980469 141.855469 606.238281 143.054688 606.449219 144.273438 C 606.660156 145.488281 606.816406 146.714844 606.921875 147.949219 C 607.027344 149.183594 607.082031 150.417969 607.082031 151.660156 Z M 607.082031 151.660156 " fill-opacity="1" fill-rule="nonzero"/><path fill="#ffffff" d="M 583.023438 135.488281 C 583.023438 136.46875 582.929688 137.441406 582.738281 138.402344 C 582.546875 139.363281 582.265625 140.292969 581.890625 141.199219 C 581.515625 142.105469 581.054688 142.964844 580.511719 143.78125 C 579.964844 144.59375 579.347656 145.347656 578.652344 146.042969 C 577.960938 146.734375 577.207031 147.351562 576.394531 147.898438 C 575.578125 148.441406 574.71875 148.902344 573.8125 149.277344 C 572.90625 149.652344 571.976562 149.933594 571.015625 150.125 C 570.054688 150.316406 569.082031 150.410156 568.101562 150.410156 C 567.125 150.410156 566.152344 150.316406 565.191406 150.125 C 564.230469 149.933594 563.296875 149.652344 562.394531 149.277344 C 561.488281 148.902344 560.628906 148.441406 559.8125 147.898438 C 559 147.351562 558.246094 146.734375 557.550781 146.042969 C 556.859375 145.347656 556.242188 144.59375 555.695312 143.78125 C 555.152344 142.964844 554.691406 142.105469 554.316406 141.199219 C 553.941406 140.292969 553.660156 139.363281 553.46875 138.402344 C 553.277344 137.441406 553.179688 136.46875 553.179688 135.488281 C 553.179688 134.507812 553.277344 133.539062 553.46875 132.578125 C 553.660156 131.617188 553.941406 130.683594 554.316406 129.777344 C 554.691406 128.875 555.152344 128.011719 555.695312 127.199219 C 556.242188 126.382812 556.859375 125.628906 557.550781 124.9375 C 558.246094 124.246094 559 123.625 559.8125 123.082031 C 560.628906 122.539062 561.488281 122.078125 562.394531 121.703125 C 563.296875 121.328125 564.230469 121.042969 565.191406 120.855469 C 566.152344 120.664062 567.125 120.566406 568.101562 120.566406 C 569.082031 120.566406 570.054688 120.664062 571.015625 120.855469 C 571.976562 121.042969 572.90625 121.328125 573.8125 121.703125 C 574.71875 122.078125 575.578125 122.539062 576.394531 123.082031 C 577.207031 123.625 577.960938 124.246094 578.652344 124.9375 C 579.347656 125.628906 579.964844 126.382812 580.511719 127.199219 C 581.054688 128.011719 581.515625 128.875 581.890625 129.777344 C 582.265625 130.683594 582.546875 131.617188 582.738281 132.578125 C 582.929688 133.539062 583.023438 134.507812 583.023438 135.488281 Z M 583.023438 135.488281 " fill-opacity="1" fill-rule="nonzero"/><path fill="#001230" d="M 441.796875 135.417969 C 441.796875 136.394531 441.753906 137.371094 441.671875 138.34375 C 441.589844 139.316406 441.464844 140.285156 441.300781 141.242188 C 441.132812 142.203125 440.929688 143.148438 440.683594 144.085938 C 440.433594 145.023438 440.148438 145.941406 439.824219 146.84375 C 439.5 147.75 439.136719 148.632812 438.738281 149.492188 C 438.339844 150.355469 437.902344 151.195312 437.433594 152.007812 C 436.960938 152.820312 436.457031 153.605469 435.917969 154.359375 C 435.378906 155.117188 434.8125 155.839844 434.210938 156.53125 C 433.609375 157.222656 432.984375 157.878906 432.328125 158.5 C 431.671875 159.121094 430.992188 159.703125 430.285156 160.246094 C 429.582031 160.789062 428.855469 161.292969 428.105469 161.753906 C 427.359375 162.214844 426.59375 162.632812 425.808594 163.003906 C 425.023438 163.378906 424.226562 163.707031 423.414062 163.992188 C 422.601562 164.277344 421.78125 164.515625 420.949219 164.703125 C 420.117188 164.894531 419.28125 165.039062 418.433594 165.136719 C 417.589844 165.230469 416.746094 165.277344 415.898438 165.277344 C 415.046875 165.277344 414.203125 165.230469 413.359375 165.136719 C 412.515625 165.039062 411.675781 164.894531 410.84375 164.703125 C 410.011719 164.515625 409.191406 164.277344 408.378906 163.992188 C 407.566406 163.707031 406.769531 163.378906 405.984375 163.003906 C 405.203125 162.632812 404.433594 162.214844 403.6875 161.753906 C 402.9375 161.292969 402.210938 160.789062 401.507812 160.246094 C 400.800781 159.703125 400.121094 159.121094 399.464844 158.5 C 398.808594 157.878906 398.183594 157.222656 397.582031 156.53125 C 396.984375 155.839844 396.414062 155.117188 395.875 154.359375 C 395.335938 153.605469 394.832031 152.820312 394.359375 152.007812 C 393.890625 151.195312 393.453125 150.355469 393.054688 149.492188 C 392.65625 148.632812 392.292969 147.75 391.96875 146.84375 C 391.644531 145.941406 391.359375 145.023438 391.113281 144.085938 C 390.867188 143.148438 390.660156 142.203125 390.492188 141.242188 C 390.328125 140.285156 390.203125 139.316406 390.121094 138.34375 C 390.039062 137.371094 389.996094 136.394531 389.996094 135.417969 C 389.996094 134.441406 390.039062 133.464844 390.121094 132.492188 C 390.203125 131.519531 390.328125 130.550781 390.492188 129.59375 C 390.660156 128.632812 390.867188 127.683594 391.113281 126.75 C 391.359375 125.8125 391.644531 124.894531 391.96875 123.992188 C 392.292969 123.085938 392.65625 122.203125 393.054688 121.339844 C 393.453125 120.480469 393.890625 119.640625 394.359375 118.828125 C 394.832031 118.015625 395.335938 117.230469 395.875 116.472656 C 396.414062 115.71875 396.984375 114.996094 397.582031 114.304688 C 398.183594 113.613281 398.808594 112.957031 399.464844 112.335938 C 400.121094 111.714844 400.800781 111.132812 401.507812 110.589844 C 402.210938 110.046875 402.9375 109.542969 403.6875 109.082031 C 404.433594 108.621094 405.203125 108.203125 405.984375 107.828125 C 406.769531 107.457031 407.566406 107.125 408.378906 106.84375 C 409.191406 106.558594 410.011719 106.320312 410.84375 106.128906 C 411.675781 105.941406 412.515625 105.796875 413.359375 105.699219 C 414.203125 105.605469 415.046875 105.558594 415.898438 105.558594 C 416.746094 105.558594 417.589844 105.605469 418.433594 105.699219 C 419.28125 105.796875 420.117188 105.941406 420.949219 106.128906 C 421.78125 106.320312 422.601562 106.558594 423.414062 106.84375 C 424.226562 107.125 425.023438 107.457031 425.808594 107.828125 C 426.59375 108.203125 427.359375 108.621094 428.105469 109.082031 C 428.855469 109.542969 429.582031 110.046875 430.285156 110.589844 C 430.992188 111.132812 431.671875 111.714844 432.328125 112.335938 C 432.984375 112.957031 433.609375 113.613281 434.210938 114.304688 C 434.8125 114.996094 435.378906 115.71875 435.917969 116.472656 C 436.457031 117.230469 436.960938 118.015625 437.433594 118.828125 C 437.902344 119.640625 438.339844 120.480469 438.738281 121.339844 C 439.136719 122.203125 439.5 123.085938 439.824219 123.992188 C 440.148438 124.894531 440.433594 125.8125 440.683594 126.75 C 440.929688 127.683594 441.132812 128.632812 441.300781 129.59375 C 441.464844 130.550781 441.589844 131.519531 441.671875 132.492188 C 441.753906 133.464844 441.796875 134.441406 441.796875 135.417969 Z M 441.796875 135.417969 " fill-opacity="1" fill-rule="nonzero"/><path fill="#ffffff" d="M 422.828125 122.664062 C 422.828125 123.4375 422.753906 124.203125 422.601562 124.960938 C 422.453125 125.71875 422.230469 126.453125 421.933594 127.167969 C 421.636719 127.882812 421.273438 128.558594 420.847656 129.203125 C 420.417969 129.84375 419.929688 130.4375 419.382812 130.984375 C 418.835938 131.53125 418.242188 132.019531 417.601562 132.449219 C 416.957031 132.878906 416.28125 133.242188 415.566406 133.535156 C 414.851562 133.832031 414.117188 134.054688 413.359375 134.207031 C 412.601562 134.355469 411.835938 134.433594 411.0625 134.433594 C 410.289062 134.433594 409.527344 134.355469 408.769531 134.207031 C 408.011719 134.054688 407.273438 133.832031 406.5625 133.535156 C 405.847656 133.242188 405.167969 132.878906 404.527344 132.449219 C 403.882812 132.019531 403.289062 131.53125 402.742188 130.984375 C 402.199219 130.4375 401.710938 129.84375 401.28125 129.203125 C 400.851562 128.558594 400.488281 127.882812 400.191406 127.167969 C 399.898438 126.453125 399.675781 125.71875 399.523438 124.960938 C 399.371094 124.203125 399.296875 123.4375 399.296875 122.664062 C 399.296875 121.894531 399.371094 121.128906 399.523438 120.371094 C 399.675781 119.613281 399.898438 118.875 400.191406 118.164062 C 400.488281 117.449219 400.851562 116.769531 401.28125 116.128906 C 401.710938 115.488281 402.199219 114.890625 402.742188 114.347656 C 403.289062 113.800781 403.882812 113.3125 404.527344 112.882812 C 405.167969 112.453125 405.847656 112.089844 406.5625 111.796875 C 407.273438 111.5 408.011719 111.277344 408.769531 111.125 C 409.527344 110.976562 410.289062 110.898438 411.0625 110.898438 C 411.835938 110.898438 412.601562 110.976562 413.359375 111.125 C 414.117188 111.277344 414.851562 111.5 415.566406 111.796875 C 416.28125 112.089844 416.957031 112.453125 417.601562 112.882812 C 418.242188 113.3125 418.835938 113.800781 419.382812 114.347656 C 419.929688 114.890625 420.417969 115.488281 420.847656 116.128906 C 421.273438 116.769531 421.636719 117.449219 421.933594 118.164062 C 422.230469 118.875 422.453125 119.613281 422.601562 120.371094 C 422.753906 121.128906 422.828125 121.894531 422.828125 122.664062 Z M 422.828125 122.664062 " fill-opacity="1" fill-rule="nonzero"/><path fill="#ffd2e1" d="M 410.578125 179.804688 C 416.714844 160.960938 428.949219 138.28125 453.085938 129.851562 C 472.308594 123.144531 493.558594 128 509.050781 141.207031 C 522.773438 152.898438 536.660156 173.238281 533.925781 206.914062 C 531.859375 232.3125 510.425781 251.992188 484.949219 252.199219 C 467.148438 252.339844 446.191406 248.867188 428.363281 235.933594 C 410.792969 223.195312 403.851562 200.441406 410.578125 179.804688 Z M 410.578125 179.804688 " fill-opacity="1" fill-rule="nonzero"/><path fill="#001230" d="M 445.023438 175.550781 C 436.082031 167.296875 436.710938 152.84375 446.773438 146 C 451.671875 142.667969 458.945312 140.300781 469.742188 140.753906 C 469.742188 140.753906 481.617188 140.753906 490.296875 147.160156 C 501.308594 155.285156 499.695312 171.949219 487.761719 178.636719 C 482.460938 181.609375 474.742188 184.167969 463.539062 185.082031 C 463.53125 185.082031 453.179688 183.078125 445.023438 175.550781 Z M 445.023438 175.550781 " fill-opacity="1" fill-rule="nonzero"/><g mask="url(#b2a352eed0)"><g transform="matrix(1, 0, 0, 1, 442, 142)"><g clip-path="url(#87da97c28f)"><path fill="#ffffff" d="M 39.105469 13.191406 C 39.183594 13.972656 39.144531 14.757812 38.984375 15.546875 C 38.828125 16.335938 38.550781 17.113281 38.160156 17.882812 C 37.773438 18.648438 37.273438 19.390625 36.667969 20.109375 C 36.0625 20.824219 35.359375 21.5 34.5625 22.136719 C 33.765625 22.777344 32.886719 23.363281 31.925781 23.894531 C 30.964844 24.429688 29.941406 24.902344 28.855469 25.3125 C 27.769531 25.722656 26.644531 26.0625 25.476562 26.332031 C 24.308594 26.605469 23.117188 26.800781 21.910156 26.921875 C 20.703125 27.042969 19.5 27.085938 18.300781 27.050781 C 17.101562 27.015625 15.929688 26.90625 14.785156 26.71875 C 13.640625 26.53125 12.546875 26.273438 11.5 25.9375 C 10.449219 25.605469 9.472656 25.207031 8.566406 24.738281 C 7.65625 24.273438 6.832031 23.746094 6.097656 23.164062 C 5.363281 22.582031 4.726562 21.953125 4.195312 21.28125 C 3.660156 20.605469 3.238281 19.894531 2.925781 19.152344 C 2.613281 18.410156 2.417969 17.648438 2.339844 16.871094 C 2.261719 16.089844 2.300781 15.304688 2.460938 14.515625 C 2.621094 13.726562 2.894531 12.945312 3.285156 12.179688 C 3.671875 11.414062 4.171875 10.671875 4.777344 9.953125 C 5.382812 9.238281 6.085938 8.5625 6.882812 7.921875 C 7.679688 7.285156 8.5625 6.699219 9.519531 6.167969 C 10.480469 5.632812 11.503906 5.160156 12.589844 4.75 C 13.675781 4.339844 14.800781 4 15.96875 3.726562 C 17.140625 3.457031 18.328125 3.261719 19.535156 3.140625 C 20.742188 3.019531 21.945312 2.976562 23.144531 3.011719 C 24.34375 3.046875 25.515625 3.15625 26.660156 3.34375 C 27.804688 3.53125 28.902344 3.789062 29.949219 4.125 C 30.996094 4.457031 31.972656 4.855469 32.882812 5.324219 C 33.789062 5.789062 34.613281 6.316406 35.347656 6.898438 C 36.082031 7.480469 36.71875 8.105469 37.253906 8.78125 C 37.785156 9.457031 38.210938 10.167969 38.519531 10.910156 C 38.832031 11.648438 39.027344 12.410156 39.105469 13.191406 Z M 39.105469 13.191406 " fill-opacity="1" fill-rule="nonzero"/></g></g></g><g clip-path="url(#a9e8a41e91)"><path fill="#5ce1e6" d="M 512.496094 416.382812 C 512.496094 428.410156 502.734375 438.140625 490.679688 438.140625 L 445.996094 438.140625 C 430.550781 438.140625 418.007812 425.632812 418.007812 410.230469 L 418.007812 365.664062 C 418.007812 353.640625 427.769531 343.90625 439.824219 343.90625 C 451.882812 343.90625 461.640625 353.640625 461.640625 365.664062 L 461.640625 394.625 L 490.679688 394.625 C 502.734375 394.625 512.496094 404.398438 512.496094 416.382812 Z M 512.496094 416.382812 " fill-opacity="1" fill-rule="nonzero"/></g><g clip-path="url(#55211e7d07)"><path fill="#587dff" d="M 366.996094 416.101562 C 366.996094 404.074219 376.753906 394.34375 388.8125 394.34375 L 433.492188 394.34375 C 448.9375 394.34375 461.480469 406.851562 461.480469 422.253906 L 461.480469 466.820312 C 461.480469 478.84375 451.722656 488.578125 439.664062 488.578125 C 427.605469 488.578125 417.847656 478.84375 417.847656 466.820312 L 417.847656 437.859375 L 388.8125 437.859375 C 376.753906 437.859375 366.996094 428.128906 366.996094 416.101562 Z M 366.996094 416.101562 " fill-opacity="1" fill-rule="nonzero"/></g><path fill="#2720ff" d="M 461.480469 422.253906 L 461.480469 438.140625 L 445.996094 438.140625 C 430.550781 438.140625 418.007812 425.632812 418.007812 410.230469 L 418.007812 394.34375 L 433.492188 394.34375 C 448.9375 394.34375 461.480469 406.851562 461.480469 422.253906 Z M 461.480469 422.253906 " fill-opacity="1" fill-rule="nonzero"/></svg>